<svg height="60" viewBox="0 0 333 60" width="333" xmlns="http://www.w3.org/2000/svg"><g fill="none" fill-rule="evenodd"><g fill="#fff" fill-rule="nonzero" transform="translate(73.024 21.856)"><path d="m0 18.144h3.6l1.656-3.888h7.248l1.656 3.888h3.648l-7.368-17.04h-3.096zm6.528-6.936 2.352-5.544 2.352 5.544z"/><path d="m18.624 12.144c0 3.408 2.448 6.264 5.64 6.264 1.656 0 2.928-.84 3.456-1.608v1.344h3.288v-18h-3.288v7.344c-.528-.768-1.8-1.608-3.456-1.608-3.192 0-5.64 2.856-5.64 6.264zm9.36 0c0 1.872-1.224 3.264-3.024 3.264s-3.024-1.392-3.024-3.264 1.224-3.264 3.024-3.264 3.024 1.392 3.024 3.264z"/><path d="m37.944 18.144h3l5.328-12h-3.672l-3.168 7.68-3.168-7.68h-3.624z"/><path d="m47.112 12.144c0 3.408 2.448 6.264 5.64 6.264 1.656 0 2.928-.84 3.456-1.608v1.344h3.288v-12h-3.288v1.344c-.528-.768-1.8-1.608-3.456-1.608-3.192 0-5.64 2.856-5.64 6.264zm9.36 0c0 1.872-1.224 3.264-3.024 3.264s-3.024-1.392-3.024-3.264 1.224-3.264 3.024-3.264 3.024 1.392 3.024 3.264z"/><path d="m62.688 18.144h3.288v-5.856c0-2.304 1.152-3.408 2.664-3.408 1.368 0 2.112 1.056 2.112 2.784v6.48h3.288v-7.032c0-3.12-1.728-5.232-4.632-5.232-1.56 0-2.808.672-3.432 1.632v-1.368h-3.288z"/><path d="m88.752 13.56h-3.408c-.456 1.08-1.344 1.872-2.736 1.872-1.728 0-3-1.296-3-3.288s1.272-3.288 3-3.288c1.392 0 2.28.792 2.736 1.872h3.408c-.648-2.76-2.832-4.848-6.144-4.848-3.648 0-6.312 2.784-6.312 6.264s2.664 6.264 6.312 6.264c3.312 0 5.496-2.088 6.144-4.848z"/><path d="m102.648 14.232h-3.432c-.384.816-1.392 1.32-2.544 1.32-2.04 0-3.096-1.224-3.24-2.64h9.36c.168-4.512-2.736-7.032-6.264-7.032-3.648 0-6.312 2.664-6.312 6.24 0 3.648 2.616 6.288 6.288 6.288 3.048 0 5.424-1.752 6.144-4.176zm-6.216-5.688c1.128 0 2.352.6 2.76 2.208h-5.64c.312-1.32 1.368-2.208 2.88-2.208z"/><path d="m104.424 12.144c0 3.408 2.448 6.264 5.64 6.264 1.656 0 2.928-.84 3.456-1.608v1.344h3.288v-18h-3.288v7.344c-.528-.768-1.8-1.608-3.456-1.608-3.192 0-5.64 2.856-5.64 6.264zm9.36 0c0 1.872-1.224 3.264-3.024 3.264s-3.024-1.392-3.024-3.264 1.224-3.264 3.024-3.264 3.024 1.392 3.024 3.264z"/><path d="m131.448 1.104h-5.664v17.04h3.48v-5.568h2.184c3.456 0 5.976-2.496 5.976-5.736s-2.52-5.736-5.976-5.736zm-.048 8.208h-2.136v-4.944h2.136c1.584 0 2.64 1.08 2.64 2.472s-1.056 2.472-2.64 2.472z"/><path d="m151.32 14.232h-3.432c-.384.816-1.392 1.32-2.544 1.32-2.04 0-3.096-1.224-3.24-2.64h9.36c.168-4.512-2.736-7.032-6.264-7.032-3.648 0-6.312 2.664-6.312 6.24 0 3.648 2.616 6.288 6.288 6.288 3.048 0 5.424-1.752 6.144-4.176zm-6.216-5.688c1.128 0 2.352.6 2.76 2.208h-5.64c.312-1.32 1.368-2.208 2.88-2.208z"/><path d="m153.864 18.144h3.288v-5.736c0-1.968 1.032-3.192 2.592-3.192.528 0 .984.096 1.488.264v-3.336c-.408-.12-.768-.144-1.104-.144-1.344 0-2.568.888-2.976 2.064v-1.92h-3.288z"/><path d="m163.344 18.144h3.288v-5.856c0-2.304.984-3.408 2.4-3.408 1.296 0 1.872 1.08 1.872 2.856v6.408h3.288v-5.856c0-2.304.984-3.408 2.4-3.408 1.296 0 1.872 1.08 1.872 2.856v6.408h3.288v-6.96c0-3.24-1.632-5.304-4.488-5.304-1.368 0-2.976.72-3.72 2.208-.72-1.392-1.968-2.208-3.72-2.208-1.464 0-2.544.696-3.192 1.632v-1.368h-3.288z"/><path d="m188.52 2.088c0-1.152-.936-2.088-2.112-2.088-1.128 0-2.088.936-2.088 2.088s.96 2.088 2.088 2.088c1.176 0 2.112-.936 2.112-2.088zm-3.744 16.056h3.288v-12h-3.288z"/><path d="m200.88 14.76c0-1.872-.984-3.12-3.336-3.72l-2.112-.576c-.72-.168-1.368-.432-1.368-1.104 0-.576.576-.912 1.416-.912.72 0 1.416.312 1.584 1.224h3.312c-.192-2.4-2.208-3.792-4.848-3.792-3 0-4.824 1.488-4.824 3.552 0 1.752.96 3.192 3.048 3.72l2.256.576c1.056.264 1.512.576 1.512 1.2 0 .576-.528.96-1.56.96-1.056 0-1.968-.504-2.088-1.56h-3.432c.12 2.352 2.328 4.08 5.424 4.08 2.904 0 5.016-1.392 5.016-3.648z"/><path d="m212.904 14.76c0-1.872-.984-3.12-3.336-3.72l-2.112-.576c-.72-.168-1.368-.432-1.368-1.104 0-.576.576-.912 1.416-.912.72 0 1.416.312 1.584 1.224h3.312c-.192-2.4-2.208-3.792-4.848-3.792-3 0-4.824 1.488-4.824 3.552 0 1.752.96 3.192 3.048 3.72l2.256.576c1.056.264 1.512.576 1.512 1.2 0 .576-.528.96-1.56.96-1.056 0-1.968-.504-2.088-1.56h-3.432c.12 2.352 2.328 4.08 5.424 4.08 2.904 0 5.016-1.392 5.016-3.648z"/><path d="m219.024 2.088c0-1.152-.936-2.088-2.112-2.088-1.128 0-2.088.936-2.088 2.088s.96 2.088 2.088 2.088c1.176 0 2.112-.936 2.112-2.088zm-3.744 16.056h3.288v-12h-3.288z"/><path d="m233.568 12.144c0-3.504-2.832-6.264-6.312-6.264s-6.312 2.76-6.312 6.264 2.832 6.264 6.312 6.264 6.312-2.76 6.312-6.264zm-9.312 0c0-1.848 1.272-3.192 3-3.192s2.976 1.344 2.976 3.192-1.248 3.192-2.976 3.192-3-1.344-3-3.192z"/><path d="m235.944 18.144h3.288v-5.856c0-2.304 1.152-3.408 2.664-3.408 1.368 0 2.112 1.056 2.112 2.784v6.48h3.288v-7.032c0-3.12-1.728-5.232-4.632-5.232-1.56 0-2.808.672-3.432 1.632v-1.368h-3.288z"/><path d="m259.968 14.76c0-1.872-.984-3.12-3.336-3.72l-2.112-.576c-.72-.168-1.368-.432-1.368-1.104 0-.576.576-.912 1.416-.912.72 0 1.416.312 1.584 1.224h3.312c-.192-2.4-2.208-3.792-4.848-3.792-3 0-4.824 1.488-4.824 3.552 0 1.752.96 3.192 3.048 3.72l2.256.576c1.056.264 1.512.576 1.512 1.2 0 .576-.528.96-1.56.96-1.056 0-1.968-.504-2.088-1.56h-3.432c.12 2.352 2.328 4.08 5.424 4.08 2.904 0 5.016-1.392 5.016-3.648z"/></g><path d="m36.438621 2.62917503 17.3978946 9.52512677c3.2049402 1.7546642 5.1977426 5.1176174 5.1977426 8.7714494v18.1484976c0 3.653832-1.9928024 7.0167852-5.1977426 8.7714494l-17.3978946 9.5251268c-2.9919734 1.6380675-6.6125414 1.6380675-9.6045147 0l-17.39789461-9.5251268c-3.20494025-1.7546642-5.19774265-5.1176174-5.19774265-8.7714494v-18.1484976c0-3.653832 1.9928024-7.0167852 5.19774265-8.7714494l17.39789461-9.52512677c2.9919733-1.63806749 6.6125413-1.63806749 9.6045147 0z" fill="#fff" transform="matrix(-1 0 0 1 63.272728 0)"/><g fill="#9868d6" fill-rule="nonzero" transform="translate(17 14)"><path d="m27.3888889 0c.8897921 0 1.6111111.72206708 1.6111111 1.61278195v29.77443605c0 .8907149-.721319 1.612782-1.6111111 1.612782h-25.77777779c-.8897921 0-1.61111111-.7220671-1.61111111-1.612782v-29.77443605c0-.89071487.72131901-1.61278195 1.61111111-1.61278195zm-1.6111111 3.22556391h-22.55555558v26.54854139h22.55555558z"/><path d="m19.4056604 16c.8805294 0 1.5943396.7097925 1.5943396 1.5853659v6.8292682c0 .8755734-.7138102 1.5853659-1.5943396 1.5853659h-9.81132078c-.88052946 0-1.59433962-.7097925-1.59433962-1.5853659v-6.8292682c0-.8755734.71381016-1.5853659 1.59433962-1.5853659zm-1.5946258 3.1707317h-6.6223554v3.6584959h6.6223554z"/><path d="m14.5 7c2.4852814 0 4.5 2.00793506 4.5 4.4848485v1.9393939c0 .8702669-.7078741 1.5757576-1.5810811 1.5757576s-1.5810811-.7054907-1.5810811-1.5757576v-1.9393939c0-.7363797-.5989704-1.3333333-1.3378378-1.3333333s-1.3378378.5969536-1.3378378 1.3333333v1.9393939c0 .8702669-.7078741 1.5757576-1.5810811 1.5757576s-1.5810811-.7054907-1.5810811-1.5757576v-1.9393939c0-2.47691344 2.0147186-4.4848485 4.5-4.4848485z"/></g></g></svg>